<?xml version="1.0" encoding="UTF-8" standalone="no"?>
<!DOCTYPE svg PUBLIC "-//W3C//DTD SVG 1.1//EN" "http://www.w3.org/Graphics/SVG/1.1/DTD/svg11.dtd">
<svg width="100%" height="100%" viewBox="0 0 1024 1024" version="1.1" xmlns="http://www.w3.org/2000/svg" xmlns:xlink="http://www.w3.org/1999/xlink" xml:space="preserve" xmlns:serif="http://www.serif.com/" style="fill-rule:evenodd;clip-rule:evenodd;stroke-linejoin:round;stroke-miterlimit:2;">
    <g id="Background" transform="matrix(2.558906,0,0,2.558906,-883.25538,-317.710073)">
        <g transform="matrix(1,0,0,1,33.267447,40.15568)">
            <path d="M428.776,215.579C429.012,214.548 429.759,212.595 430.345,210.456C431.606,205.861 437.356,190.399 450.418,177.416C456.403,171.468 459.195,169.614 462.342,167.277C466.642,164.084 476.807,158.189 485.577,155.774C489.044,154.819 491.265,153.69 497.558,152.867C500.172,152.525 511.371,149.675 531.457,153.702C532.2,153.851 532.617,153.934 540.552,156.334C542.501,156.923 550.098,159.983 555.211,162.987C585.009,180.496 592.075,206.079 594.682,213.395C595.147,214.744 598.248,227.174 597.984,237.499C597.443,258.614 591.918,267.628 589.211,275.164C586.585,278.801 587.075,279.101 583.866,283.747C581.968,286.495 582.259,287.103 584.75,289.197C591.286,294.693 596.437,301.058 597.611,302.405C600.973,306.262 611.383,320.626 614.617,334.473C617.67,347.547 618.028,358.404 611.518,372.509C610.536,374.635 607.259,379.657 603.249,383.21C599.585,386.456 591.309,391.578 580.472,393.327C572.61,394.596 564.503,395.413 548.435,392.856C546.48,392.545 538.014,390.296 536.434,389.662C531.745,387.783 525.826,385.427 522.403,376.539C520.229,370.893 521.431,361.619 528.699,355.752C537.921,348.307 549.583,352.606 559.384,349.172C562.835,347.962 566.554,346.741 570.918,341.872C574.136,338.282 574.702,335.725 576.67,330.529C576.75,330.316 577.55,328.205 577.126,327.715C577.062,327.641 575.86,327.648 575.693,327.749C574.752,328.316 571.156,339.737 558.497,344.492C556.713,345.163 550.325,346.193 549.485,345.525C548.571,344.799 548.718,344.011 548.721,333.5C548.724,325.597 549.55,321.126 543.802,317.054C543.388,316.761 542.447,316.095 537.767,315.125C537.901,314.184 537.676,314.084 538.334,313.405C543.814,307.759 545.732,300.619 546.065,299.382C547.205,295.14 547.632,293.006 547.173,286.53C546.618,278.706 544.254,278.146 547.311,274.353C548.499,272.879 553.859,265.659 554.172,265.254C556.959,261.644 561.534,255.156 562.16,254.268C567.699,246.411 565.09,234.935 559.986,228.127C558.234,225.79 555.515,221.818 547.476,218.555C542.399,216.494 534.771,216.202 529.679,217.983C529.196,218.152 523.202,220.598 522.639,220.827C521.978,221.097 518.042,222.703 514.414,224.308C510.632,225.98 510.544,224.521 504.546,222.375C501.187,221.173 494.173,217.636 490.547,217.17C473.596,214.989 461.138,226.639 459.147,238.428C457.362,248.997 459.405,250.79 465.933,260.172C466.026,260.305 471.553,267.491 476.934,275.184C479.34,278.622 477.09,279.005 476.397,288.494C475.752,297.328 479.163,304.474 481.985,309.186C482.336,309.772 484.241,312.278 484.442,312.543C484.618,312.775 484.782,313.017 484.982,313.227C485.105,313.357 485.314,313.404 485.404,313.558C485.584,313.868 485.582,314.262 485.762,314.572L485.442,315.397C481.094,316.163 480.191,316.635 478.448,318.45C474.706,322.347 475.327,324.48 475.247,341.499C475.232,344.654 475.63,345.967 472.483,345.725C468.691,345.435 459.027,344.226 451.766,333.319C449.797,330.36 448.789,327.667 448.48,327.531C448.183,327.4 447.83,327.488 447.507,327.512C446.199,327.609 446.896,328.233 447.271,329.499C449.261,336.208 449.864,338.896 454.097,342.923C465.45,353.722 477.581,349.498 485.526,351.391C498.1,354.387 500.665,362.686 501.632,365.454C502.985,369.326 502.329,374.441 501.519,376.507C498.781,383.482 495.163,386.418 489.585,388.707C478.49,393.258 467.31,394.08 462.502,394.528C453.41,395.375 441.513,393.17 438.568,392.275C435.073,391.212 429.739,389.752 423.57,385.398C402.185,370.309 396.473,326.929 439.77,288.81C441.976,286.868 441.574,286.321 440.015,283.819C435.106,275.939 435.237,275.868 434.794,275.194C432.852,269.443 432.127,269.721 430.31,263.555C429.212,259.831 428.704,259.954 426.41,245.513C425.053,236.968 426.63,227.138 426.883,225.561C428.196,217.381 428.354,217.431 428.776,215.579Z" style="fill:rgb(142,130,121);"/>
        </g>
        <g transform="matrix(1,0,0,1,33.363621,40.282912)">
            <path d="M485.762,314.572C485.582,314.262 485.584,313.868 485.404,313.558C485.314,313.404 485.105,313.357 484.982,313.227C484.782,313.017 484.618,312.775 484.442,312.543C484.241,312.278 482.336,309.772 481.985,309.186C479.163,304.474 475.752,297.328 476.397,288.494C477.09,279.005 479.34,278.622 476.934,275.184C471.553,267.491 466.026,260.305 465.933,260.172C459.405,250.79 457.362,248.997 459.147,238.428C461.138,226.639 473.596,214.989 490.547,217.17C494.173,217.636 501.187,221.173 504.546,222.375C510.544,224.521 510.632,225.98 514.414,224.308C518.042,222.703 521.978,221.097 522.639,220.827C523.202,220.598 529.196,218.152 529.679,217.983C534.771,216.202 542.399,216.494 547.476,218.555C555.515,221.818 558.234,225.79 559.986,228.127C565.09,234.935 567.699,246.411 562.16,254.268C561.534,255.156 556.959,261.644 554.172,265.254C553.859,265.659 548.499,272.879 547.311,274.353C544.254,278.146 546.618,278.706 547.173,286.53C547.632,293.006 547.205,295.14 546.065,299.382C545.732,300.619 543.814,307.759 538.334,313.405C537.676,314.084 537.901,314.184 537.767,315.125C537.112,315.118 537.145,314.985 536.5,314.978C536.057,314.973 536.086,315.118 535.634,315.101C535.496,315.096 535.396,314.927 535.258,314.931C535.004,314.938 534.775,315.105 534.522,315.131C534.504,315.132 526.222,315.155 525.501,315.157C522.35,315.165 489.69,315.254 486.118,315.075L485.762,314.572Z" style="fill:rgb(214,181,169);"/>
        </g>
        <g transform="matrix(1,0,0,1,33.36853,39.228876)">
            <path d="M528.501,319.887C536.06,319.899 539.487,319.659 541.219,320.93C544.447,323.3 543.91,326.326 543.854,337.502C543.82,344.414 544.354,345.866 541.458,346.174C540.819,346.242 537.694,346.574 533.598,347.824C521.102,351.637 512.191,366.375 519.023,380.715C523.599,390.323 532.176,393.964 541.557,396.273C544.453,396.985 544.496,397.522 544.525,400.5C544.621,410.404 544.822,412.196 543.281,414.343C540.746,417.875 537.162,417.449 532.5,417.453C530.014,417.454 488.062,417.593 486.499,417.516C478.171,417.108 479.224,409.616 479.241,406.498C479.283,398.618 478.673,397.26 481.493,396.477C486.071,395.205 486.086,395.294 490.558,393.657C498.395,390.79 503.663,384.424 505.449,379.481C508.301,371.585 507.062,367.313 505.532,362.489C503.767,356.922 497.902,350.655 492.481,348.546C483.77,345.158 480.727,347.067 480.116,344.598C479.902,343.736 480.022,343.723 479.971,333.499C479.942,327.579 479.039,321.74 484.434,320.273C486.541,319.7 486.582,319.997 528.501,319.887Z" style="fill:rgb(201,110,50);"/>
        </g>
        <g transform="matrix(1,0,0,1,33.554423,40)">
            <path d="M428.91,213.959C428.897,214.118 429.012,214.548 428.776,215.579C428.354,217.431 428.196,217.381 426.883,225.561C426.63,227.138 425.053,236.968 426.41,245.513C428.704,259.954 429.212,259.831 430.31,263.555C432.127,269.721 432.852,269.443 434.794,275.194C434.406,275.312 432.912,275.745 432.526,275.885C432.486,275.9 423.259,277.018 422.453,277.116C418.441,277.602 418.917,275.925 408.18,265.846C405.023,262.881 404.775,262.84 404.163,258.553C403.471,253.696 402.583,250.968 401.26,242.54C399.94,234.128 406.075,226.988 406.668,221.433C407.105,217.337 405.85,213.668 404.815,209.214C403.849,205.061 414.236,209.821 422.694,212.513C424.262,213.013 424.939,212.921 426.465,213.354C428.552,213.947 428.422,213.693 428.91,213.959Z" style="fill:rgb(214,181,169);"/>
        </g>
        <g transform="matrix(-1,0,0,1,1056.961748,40)">
            <path d="M428.91,213.959C428.897,214.118 429.012,214.548 428.776,215.579C428.354,217.431 428.196,217.381 426.883,225.561C426.63,227.138 425.053,236.968 426.41,245.513C428.704,259.954 429.212,259.831 430.31,263.555C432.127,269.721 432.852,269.443 434.794,275.194C434.406,275.312 432.912,275.745 432.526,275.885C432.486,275.9 423.259,277.018 422.453,277.116C418.441,277.602 418.917,275.925 408.18,265.846C405.023,262.881 404.775,262.84 404.163,258.553C403.471,253.696 402.583,250.968 401.26,242.54C399.94,234.128 406.075,226.988 406.668,221.433C407.105,217.337 405.85,213.668 404.815,209.214C403.849,205.061 414.236,209.821 422.694,212.513C424.262,213.013 424.939,212.921 426.465,213.354C428.552,213.947 428.422,213.693 428.91,213.959Z" style="fill:rgb(214,181,169);"/>
        </g>
        <g transform="matrix(1,0,0,1,34.525678,36.363636)">
            <path d="M498.461,246.523C498.789,247.302 500.141,249.303 499.342,252.457C498.588,255.432 493.912,261.222 486.513,257.476C485.995,257.214 483.188,255.793 482.353,251.528C481.026,244.762 490.397,237.65 497.213,244.758C497.586,245.148 497.548,245.166 498.461,246.523Z" style="fill:rgb(16,13,12);"/>
        </g>
        <g transform="matrix(1,0,0,1,74.173638,36.363636)">
            <path d="M498.461,246.523C498.789,247.302 500.141,249.303 499.342,252.457C498.588,255.432 493.912,261.222 486.513,257.476C485.995,257.214 483.188,255.793 482.353,251.528C481.026,244.762 490.397,237.65 497.213,244.758C497.586,245.148 497.548,245.166 498.461,246.523Z" style="fill:rgb(16,13,12);"/>
        </g>
        <g transform="matrix(1,0,0,1,33.129682,27.636364)">
            <path d="M529.499,304.417C536.277,304.367 536.271,304.331 536.525,304.374C538.597,304.731 538.223,308.195 535.498,308.483C535.46,308.487 517.033,308.536 516.5,308.535C492.737,308.49 489.415,308.654 488.503,308.484C486.279,308.068 485.641,304.9 487.495,304.483C487.741,304.428 522.162,304.466 529.499,304.417Z" style="fill:rgb(15,7,5);"/>
        </g>
        <g transform="matrix(1,0,0,1,33.585405,34.909091)">
            <path d="M511.475,412.876C511.138,412.791 510.781,412.802 510.443,412.717C506.578,411.746 505.055,407.252 506.801,404.689C511.632,397.596 519.959,405.244 516.404,410.442C514.526,413.187 511.705,412.85 511.475,412.876Z" style="fill:rgb(229,208,184);"/>
        </g>
        <g transform="matrix(0.727273,0,0,0.727273,27.668483,-104.154748)">
            <path d="M719.556,661.095C697.67,661.021 696.293,661.287 696.374,658.866C696.452,656.52 701.468,656.958 701.676,656.957C725.45,656.857 725.578,657.002 726.275,657.648C726.43,657.791 727.689,658.957 726.482,660.274C725.51,661.335 719.831,661.093 719.556,661.095Z" style="fill:rgb(229,208,184);"/>
        </g>
        <g transform="matrix(1,0,0,1,30.263101,21.075081)">
            <path d="M517.09,286.477C517.369,284.345 517.022,284.091 518.677,282.719C518.998,282.453 521.235,280.896 522.292,280.033C522.407,279.94 523.497,279.049 524.126,279.776C524.419,280.114 524.326,281.364 524.316,281.503C524.083,284.633 524.257,284.95 521.711,286.802C518.39,289.217 518.473,289.54 517.515,289.452C516.859,289.393 516.81,288.611 516.793,288.467C516.793,288.467 517.066,286.636 517.09,286.477Z" style="fill:rgb(21,9,8);"/>
        </g>
        <g transform="matrix(-1,0,0,1,1060.253069,21.075081)">
            <path d="M517.09,286.477C517.369,284.345 517.022,284.091 518.677,282.719C518.998,282.453 521.235,280.896 522.292,280.033C522.407,279.94 523.497,279.049 524.126,279.776C524.419,280.114 524.326,281.364 524.316,281.503C524.083,284.633 524.257,284.95 521.711,286.802C518.39,289.217 518.473,289.54 517.515,289.452C516.859,289.393 516.81,288.611 516.793,288.467C516.793,288.467 517.066,286.636 517.09,286.477Z" style="fill:rgb(21,9,8);"/>
        </g>
    </g>
</svg>
